<svg xmlns="http://www.w3.org/2000/svg" width="1401" height="515" viewBox="0 0 1401 515">
  <defs>
    <style>
      .cls-1, .cls-3 {
        fill: #fff;
        stroke-linejoin: round;
        fill-rule: evenodd;
      }

      .cls-1, .cls-2, .cls-3 {
        stroke: #000;
      }

      .cls-1 {
        stroke-width: 5px;
      }

      .cls-2 {
        fill: none;
        stroke-width: 18.33px;
      }

      .cls-3 {
        stroke-width: 2px;
      }
    </style>
  </defs>
  <path id="C" class="cls-1" d="M738.609,305.313a98.4,98.4,0,0,1-50.683,13.477q-29,0-46.143-18.091T624.645,252.14q0-31.785,18.164-50.391t47.753-18.6q26.952,0,48.047,12.6V150.187q-21.093-7.763-51.855-7.764-49.659,0-80.786,31.348T574.84,255.509q0,47.316,27.685,75.732t76.026,28.418q37.057,0,60.058-11.133V305.313Z"/>
  <circle id="Elipsa_1" data-name="Elipsa 1" class="cls-2" cx="676" cy="248" r="170"/>
  <path id="Car_Meets" data-name="Car Meets" class="cls-3" d="M596.251,465.794a13.666,13.666,0,0,1-7.039,1.871,8.409,8.409,0,0,1-6.409-2.512,9.4,9.4,0,0,1-2.38-6.745,9.585,9.585,0,0,1,2.523-7,8.848,8.848,0,0,1,6.632-2.584,12.764,12.764,0,0,1,6.673,1.749v-6.327a20.98,20.98,0,0,0-7.2-1.078,15.12,15.12,0,0,0-11.22,4.354,15.414,15.414,0,0,0-4.323,11.352q0,6.572,3.845,10.519t10.559,3.947a19.233,19.233,0,0,0,8.341-1.547v-6Zm21.79-5.412q0-8.891-8.911-8.891a19.283,19.283,0,0,0-4.242.529,15.972,15.972,0,0,0-3.673,1.221v4.842a12.643,12.643,0,0,1,7.081-2.218q3.7,0,3.7,3.418l-5.656.753q-7.182.936-7.181,7a6.157,6.157,0,0,0,1.739,4.587,6.488,6.488,0,0,0,4.771,1.72,6.789,6.789,0,0,0,6.2-3.5h0.082v2.991h6.083V460.382Zm-7.182,7.151a3.807,3.807,0,0,1-2.95,1.251,2.932,2.932,0,0,1-2.065-.7,2.335,2.335,0,0,1-.763-1.8q0-2.421,3.133-2.828l3.784-.488v1.4A4.522,4.522,0,0,1,610.859,467.533Zm25.859-15.655a4.135,4.135,0,0,0-1.587-.245q-3.967,0-5.493,4.232h-0.082V452h-6.429v20.833h6.429v-9.949a6.7,6.7,0,0,1,1.18-4.181,3.9,3.9,0,0,1,3.276-1.536,5.587,5.587,0,0,1,2.706.631v-5.92Zm48.36-8.22H675.7l-5.961,17.253a41.857,41.857,0,0,0-1.16,4.211h-0.122a24.338,24.338,0,0,0-1.038-4.171l-5.961-17.293h-9.623v29.175h5.92V456.7q0-3.255-.264-7.568h0.183a37.721,37.721,0,0,0,.916,4.069l6.958,19.633h5.371L677.754,453a30.832,30.832,0,0,0,.915-3.866h0.163q-0.245,3.419-.244,6.246v17.456h6.49V443.658ZM709.8,461.541a10.422,10.422,0,0,0-2.492-7.344,9.107,9.107,0,0,0-7.05-2.706,10.032,10.032,0,0,0-7.4,3.031,11.149,11.149,0,0,0-3.011,8.22q0,5,2.787,7.8t7.833,2.8a15.872,15.872,0,0,0,7.507-1.547v-4.638a11.164,11.164,0,0,1-6.043,1.627q-5.391,0-5.716-4.537H709.8v-2.706ZM696.166,460.3a5.821,5.821,0,0,1,1.373-3.194,3.46,3.46,0,0,1,2.675-1.282q3.622,0,3.622,4.476h-7.67Zm36.173,1.241a10.422,10.422,0,0,0-2.492-7.344,9.1,9.1,0,0,0-7.049-2.706,10.034,10.034,0,0,0-7.406,3.031,11.149,11.149,0,0,0-3.011,8.22q0,5,2.787,7.8t7.833,2.8a15.869,15.869,0,0,0,7.507-1.547v-4.638a11.16,11.16,0,0,1-6.042,1.627q-5.393,0-5.717-4.537h13.59v-2.706ZM718.708,460.3a5.828,5.828,0,0,1,1.373-3.194,3.461,3.461,0,0,1,2.676-1.282q3.621,0,3.621,4.476h-7.67Zm30.05,7.528a4.351,4.351,0,0,1-2.1.59q-2.583,0-2.584-3.255V456.74h4.68V452h-4.68v-6.328L737.67,447.5V452h-3.378v4.74h3.378v9.542q0,7.06,6.8,7.06a9.518,9.518,0,0,0,4.293-.753v-4.761Zm8.626,5.514a17.018,17.018,0,0,0,3.611-.377,9.689,9.689,0,0,0,3.072-1.2,6.446,6.446,0,0,0,2.137-2.136,6.684,6.684,0,0,0,.407-5.443,4.89,4.89,0,0,0-1.14-1.668,7.41,7.41,0,0,0-1.78-1.241,18.729,18.729,0,0,0-2.319-.977q-0.712-.243-1.435-0.478a9.285,9.285,0,0,1-1.312-.529,3.159,3.159,0,0,1-.956-0.7,1.408,1.408,0,0,1-.366-0.976,1.263,1.263,0,0,1,.244-0.763,1.8,1.8,0,0,1,.671-0.549,3.917,3.917,0,0,1,.987-0.326,6.11,6.11,0,0,1,1.19-.112,11.056,11.056,0,0,1,2.737.356,10.209,10.209,0,0,1,2.614,1.068v-4.964a20.975,20.975,0,0,0-2.808-.62,18.822,18.822,0,0,0-2.807-.214,15.219,15.219,0,0,0-3.408.376,9.305,9.305,0,0,0-2.909,1.18,6.245,6.245,0,0,0-2.035,2.065,5.709,5.709,0,0,0-.763,3.011,6.571,6.571,0,0,0,.336,2.218,4.926,4.926,0,0,0,.976,1.648,6.331,6.331,0,0,0,1.587,1.251,15.374,15.374,0,0,0,2.187,1.007q0.774,0.306,1.608.55a13,13,0,0,1,1.536.549,4.146,4.146,0,0,1,1.149.712,1.32,1.32,0,0,1,.448,1.017,1.51,1.51,0,0,1-.987,1.424,6.376,6.376,0,0,1-2.7.468,10.448,10.448,0,0,1-2.98-.468,13.613,13.613,0,0,1-3.164-1.424v5.209a18.624,18.624,0,0,0,6.368,1.058h0Z"/>
</svg>
